#!OML:ASF F:\VICON\USERDATA\INSTALL\rory3\rory3.ASF
:FULLY-SPECIFIED
:DEGREES
926
root 1.41426 15.4088 -5.17471 -6.61442 -1.92639 -2.93531
lowerback -8.06415 12.0662 12.7198
upperback -3.43218 15.2385 -4.78658
thorax 5.31614 7.77715 -9.57009
lowerneck 3.00161 -9.24355 -14.6137
upperneck 50.1383 -4.14197 -15.5353
head 19.6614 -6.01955 -5.878
rclavicle 6.91771e-014 -3.49861e-014
rhumerus 69.1439 -5.42897 -73.8479
rradius 146.793
rwrist -64.7455
rhand 1.14411 -39.5407
rfingers 7.12502
rthumb 26.6858 -67.6794
lclavicle 6.91771e-014 -3.49861e-014
lhumerus -58.0778 -11.7802 81.4507
lradius 34.9254
lwrist 22.229
lhand -10.1107 -20.0019
lfingers 7.12502
lthumb 15.877 9.36723
rfemur -12.2471 -34.523 22.8832
rtibia 63.824
rfoot -45.9966 -37.8104
rtoes 9.92661
lfemur -36.7984 -20.6013 0.371075
ltibia 27.5947
lfoot 6.93529 -6.67872
ltoes -15.7652
927
root 1.41439 15.4067 -5.17889 -6.67058 -1.95329 -3.01407
lowerback -7.90839 12.0324 12.8026
upperback -3.45036 15.2052 -4.74004
thorax 5.20943 7.75556 -9.60624
lowerneck 3.00556 -9.21812 -14.595
upperneck 50.0985 -4.09173 -15.5835
head 19.6319 -6.00003 -5.89063
rclavicle 1.59028e-013 -6.83819e-014
rhumerus 69.1863 -5.33125 -73.8523
rradius 146.675
rwrist -64.7652
rhand 1.10796 -39.8927
rfingers 7.12502
rthumb 26.6512 -68.0367
lclavicle 1.59028e-013 -6.83819e-014
lhumerus -57.7748 -11.5466 81.2675
lradius 34.3334
lwrist 21.9558
lhand -11.5107 -20.876
lfingers 7.12502
lthumb 14.5285 8.59529
rfemur -12.2195 -34.467 22.9863
rtibia 63.8278
rfoot -45.9288 -37.9718
rtoes 9.81766
lfemur -36.7678 -20.5832 0.449357
ltibia 27.6437
lfoot 6.9175 -6.68684
ltoes -16.0939
928
root 1.41666 15.4074 -5.17883 -6.62988 -1.9462 -2.86536
lowerback -7.94672 11.9965 12.6484
upperback -3.4664 15.1659 -4.77507
thorax 5.17428 7.73216 -9.57027
lowerneck 2.99342 -9.19793 -14.6028
upperneck 50.0597 -4.06073 -15.5997
head 19.6097 -5.99117 -5.8875
rclavicle -6.71892e-014 -4.13472e-014
rhumerus 69.285 -5.2181 -73.9082
rradius 146.55
rwrist -64.8177
rhand 1.00899 -40.0033
rfingers 7.12502
rthumb 26.5565 -68.1615
lclavicle -6.71892e-014 -4.13472e-014
lhumerus -58.0014 -11.4936 81.2105
lradius 34.6472
lwrist 21.8547
lhand -13.9469 -22.9302
lfingers 7.12502
lthumb 12.1803 6.69513
rfemur -12.3146 -34.4539 22.8477
rtibia 63.8672
rfoot -45.613 -38.2513
rtoes 9.30064
lfemur -36.8031 -20.5972 0.29552
ltibia 27.6421
lfoot 6.89461 -6.67469
ltoes -16.4595
929
root 1.41827 15.407 -5.17952 -6.57083 -1.90362 -2.74347
lowerback -7.99561 11.9727 12.4962
upperback -3.50902 15.1419 -4.81652
thorax 5.12247 7.71423 -9.53887
lowerneck 3.09485 -9.18349 -14.5589
upperneck 50.0323 -4.05768 -15.6346
head 19.556 -5.98496 -5.89636
rclavicle -4.49253e-014 2.70347e-014
rhumerus 69.2336 -5.15795 -73.9098
rradius 146.55
rwrist -64.7887
rhand 0.849967 -39.9913
rfingers 7.12502
rthumb 26.4042 -68.1726
lclavicle -4.49253e-014 2.70347e-014
lhumerus -58.0138 -11.5171 81.1949
lradius 34.5974
lwrist 21.902
lhand -15.0778 -23.8629
lfingers 7.12502
lthumb 11.0897 5.82408
rfemur -12.4161 -34.4632 22.7374
rtibia 63.9234
rfoot -45.9163 -37.8825
rtoes 9.78975
lfemur -36.8597 -20.6065 0.171853
ltibia 27.6054
lfoot 6.89895 -6.705
ltoes -16.6268
930
root 1.41845 15.4063 -5.17973 -6.56823 -1.88459 -2.71612
lowerback -8.01736 11.9694 12.4419
upperback -3.51624 15.1385 -4.81598
thorax 5.11206 7.71063 -9.5081
lowerneck 3.22665 -9.16308 -14.4612
upperneck 49.9969 -4.04587 -15.6919
head 19.4817 -5.96575 -5.91785
rclavicle -2.74323e-014 7.79236e-014
rhumerus 69.1093 -5.11586 -73.902
rradius 146.619
rwrist -64.7614
rhand 0.757115 -40.1228
rfingers 7.12502
rthumb 26.3154 -68.3174
lclavicle -2.74323e-014 7.79236e-014
lhumerus -57.857 -11.5228 81.2204
lradius 34.4077
lwrist 21.9408
lhand -15.2804 -23.5388
lfingers 7.12502
lthumb 10.8943 6.15862
rfemur -12.4077 -34.4687 22.6954
rtibia 63.9478
rfoot -46.3935 -37.3779
rtoes 10.6103
lfemur -36.8579 -20.6148 0.140116
ltibia 27.5724
lfoot 6.93349 -6.73151
ltoes -16.5975
931
root 1.41982 15.4059 -5.17987 -6.60495 -1.94581 -2.72795
lowerback -7.94347 12.0292 12.5467
upperback -3.51106 15.2226 -4.85314
thorax 5.13641 7.75713 -9.59166
lowerneck 3.19698 -9.19117 -14.3716
upperneck 50.036 -4.08542 -15.695
head 19.5026 -5.96693 -5.94624
rclavicle 8.62725e-014 3.33958e-014
rhumerus 68.8902 -5.25207 -73.922
rradius 146.825
rwrist -64.8178
rhand 0.707314 -40.3381
rfingers 7.12502
rthumb 26.2677 -68.5397
lclavicle 8.62725e-014 3.33958e-014
lhumerus -57.4826 -11.2313 80.6024
lradius 33.7731
lwrist 20.0948
lhand -13.081 -25.2141
lfingers 7.12502
lthumb 13.0151 4.35991
rfemur -12.3785 -34.4229 22.7013
rtibia 63.9422
rfoot -46.105 -37.7168
rtoes 10.1581
lfemur -36.8046 -20.6139 0.164825
ltibia 27.5485
lfoot 7.01251 -6.69385
ltoes -16.178
932
root 1.41715 15.4044 -5.18352 -6.70502 -1.99432 -2.90501
lowerback -7.72304 12.0551 12.7707
upperback -3.52021 15.2689 -4.8307
thorax 5.06772 7.78058 -9.715
lowerneck 3.09159 -9.22516 -14.3653
upperneck 50.0901 -4.12832 -15.6494
head 19.5666 -5.98104 -5.94924
rclavicle -2.98177e-014 4.45278e-014
rhumerus 68.7804 -5.34759 -73.8926
rradius 146.916
rwrist -64.7845
rhand 0.672584 -40.3601
rfingers 7.12502
rthumb 26.2344 -68.5667
lclavicle -2.98177e-014 4.45278e-014
lhumerus -57.4642 -11.3775 80.6241
lradius 33.8742
lwrist 20.1401
lhand -12.274 -24.3176
lfingers 7.12502
lthumb 13.7929 5.20513
rfemur -12.2977 -34.3487 22.9151
rtibia 63.9138
rfoot -45.7167 -38.1979
rtoes 9.14113
lfemur -36.7069 -20.5945 0.369845
ltibia 27.5137
lfoot 7.05962 -6.6762
ltoes -15.4252
